<?xml version="1.0" encoding="utf-8"?>
<!-- Generator: Adobe Illustrator 18.1.0, SVG Export Plug-In . SVG Version: 6.00 Build 0)  -->
<svg version="1.1" id="Layer_1" xmlns="http://www.w3.org/2000/svg" xmlns:xlink="http://www.w3.org/1999/xlink" x="0px" y="0px"
	 viewBox="-139 38.4 419.1 492" enable-background="new -139 38.4 419.1 492" xml:space="preserve">
<rect x="-139" y="38.4" fill="#FFFFFF" width="419.1" height="492"/>
<g>
	<polygon fill="#00529B" points="17.4,319.6 -20.7,347.2 25.7,380.8 40.2,336.1 	"/>
	<polygon fill="#00529B" points="32.5,385.8 70.5,413.5 108.5,385.8 70.5,358.2 	"/>
	<polygon fill="#00529B" points="51.7,300.4 -87.7,199.1 -55.2,266.8 -8.9,300.4 	"/>
	<polygon fill="#00529B" points="66.3,255.8 -128.5,114.2 -96,181.9 54.7,291.4 	"/>
	<polygon fill="#00529B" points="-100.9,58.6 -123.9,106.4 -53.3,157.7 	"/>
	<polygon fill="#00529B" points="100.9,336.1 115.4,380.8 161.7,347.2 123.7,319.6 	"/>
	<polygon fill="#00529B" points="150,300.4 196.2,266.8 228.8,199.1 89.3,300.4 	"/>
	<polygon fill="#00529B" points="74.8,255.8 86.3,291.4 237,181.9 269.6,114.2 	"/>
	<polygon fill="#00529B" points="242,58.6 194.3,157.7 264.9,106.4 	"/>
	<path fill="#00529B" d="M49.4,326.2c0-11.7,9.5-21.1,21.1-21.1c11.7,0,21.1,9.5,21.1,21.1c0,11.7-9.5,21.1-21.1,21.1
		C58.9,347.4,49.4,337.9,49.4,326.2z"/>
</g>
<g>
	<path fill="#00529B" d="M-120.6,442.2h9.7v15.5c0,1.7,0.2,2.9,0.8,4c1.2,2.1,3.7,2.7,5.7,2.7c2.6,0,4-0.9,4.7-1.5
		c1.7-1.5,1.7-4,1.7-5.3v-15.3h9.7v14.3c0,3.2-0.1,6.6-1.6,8.9c-3,4.6-10.2,5.1-14.5,5.1c-6.1,0-9.5-0.9-11.6-2.1
		c-4.3-2.1-4.7-6.4-4.7-8.6L-120.6,442.2L-120.6,442.2z"/>
	<path fill="#00529B" d="M-85.7,462.3h8.9v7.1h-8.9V462.3z"/>
	<path fill="#00529B" d="M-61.9,449.2c0,0.4,0.1,0.7,0.3,1c0.7,0.9,3.4,1.5,4.9,1.8c1.9,0.4,3.7,0.8,5.6,1.2c1.2,0.2,2.4,0.5,3.5,1
		c3.6,1.4,4.8,4.1,4.8,6.5c0,1.8-0.6,3.5-1.4,4.7c-2.3,3.4-6.9,4.9-14.2,4.9c-2.7,0-8.2-0.2-11.4-3.1c-2.4-2.1-2.7-4.6-2.9-5.8
		l9.6-0.3c0.3,1.8,2.2,3.1,6,3.1c1,0,2.4-0.1,3.4-0.7c0.7-0.4,1.4-1.2,1.4-2.1c0-1.3-1-1.8-1.8-2.1c-1.2-0.4-7.3-1.5-8.7-1.8
		c-1.1-0.2-2.1-0.5-3.1-0.9c-1-0.4-5.4-1.9-5.4-6.9c0-2,0.9-3.9,2.2-5.3c3.1-3.2,8.5-3.5,11.6-3.5c3.3,0,6.6,0.5,8.3,1
		c5.1,1.6,5.8,5.5,6,6.9l-9.6,0.5c-0.2-0.9-0.7-2.5-4.8-2.5C-58.9,447-61.9,447.2-61.9,449.2z"/>
	<path fill="#00529B" d="M-39.6,462.3h8.9v7.1h-8.9V462.3z"/>
	<path fill="#00529B" d="M4.8,459h-6.3l3.1-9.2L4.8,459z M-15.8,469.4h10.7l1.5-4.4H6.8l1.5,4.4h10.6L7.1,442.2H-4L-15.8,469.4z"/>
	<path fill="#00529B" d="M32.3,442.2v27.3h-9.8v-27.3H32.3z"/>
	<path fill="#00529B" d="M49.4,448.3h8.1c0.7,0,1.7,0.1,2.5,0.8c0.5,0.5,0.7,1.1,0.7,1.7c0,2.4-2.5,2.5-4,2.5h-7.3V448.3z
		 M39.6,469.4h9.8v-9.9h5.2l5.6,9.9H71l-6.8-10.9c1.2-0.3,3-0.7,4.6-2.6c1.1-1.4,1.7-3.2,1.7-5.2c0-2.7-1.2-5.4-3.2-6.9
		c-2.3-1.7-5.2-1.7-7.6-1.7H39.6V469.4z"/>
	<path fill="#00529B" d="M85.6,442.2h26.7v6.1h-17v5.2H111v6.1H95.4v9.8h-9.8L85.6,442.2L85.6,442.2z"/>
	<path fill="#00529B" d="M134.2,447.2c6.7,0.1,8,5.6,8,8.5c0,2.7-1,6.3-4.1,7.8c-1.2,0.6-2.6,0.8-3.9,0.8c-5.9,0-8.2-4.4-8.2-8.6
		C126,452,128.1,447.1,134.2,447.2z M133.7,441.2c-4.8,0.1-11.3,1-15.1,6.4c-1.7,2.5-2.5,5.5-2.5,8.5c0,3.1,0.7,5.8,2.6,8.2
		c2,2.7,5.9,6.1,15.4,6.1c4.9,0,9.4-0.7,13.1-3.6c1.3-1,2.4-2.2,3.2-3.7c1.4-2.2,2-4.9,2-7.4c0-4.7-2.2-10.4-8.5-12.9
		C140.7,441.5,137.1,441.1,133.7,441.2z"/>
	<path fill="#00529B" d="M167.5,448.3h8.1c0.7,0,1.7,0.1,2.5,0.8c0.5,0.5,0.7,1.1,0.7,1.7c0,2.4-2.5,2.5-4,2.5h-7.3L167.5,448.3
		L167.5,448.3z M157.7,469.4h9.8v-9.9h5.2l5.6,9.9h10.8l-6.8-10.9c1.2-0.3,3-0.7,4.6-2.6c1.1-1.4,1.7-3.2,1.7-5.2
		c0-2.7-1.2-5.4-3.2-6.9c-2.3-1.7-5.2-1.7-7.6-1.7h-20.1L157.7,469.4L157.7,469.4z"/>
	<path fill="#00529B" d="M203.4,455.8c0,4.1,2.4,8.4,8,8.4c2.1,0,4.1-0.7,5.5-1.8c1.3-1,1.7-1.9,2-2.7l9.3,1c-0.3,1-0.7,2-1.5,3.4
		c-3.2,4.9-9.5,6.3-15.5,6.3c-2.7,0-5.3-0.2-7.8-1c-5.6-1.7-10.2-6-10.2-13.5c0-5.3,2.8-14.8,18.3-14.8c13.3,0,15.3,6,16.2,8.6
		l-9,1.6c-0.4-0.8-0.9-1.8-2.3-2.7c-1.5-0.9-3.3-1.2-4.7-1.2C207.3,447.3,203.4,450,203.4,455.8z"/>
	<path fill="#00529B" d="M261.3,442.2v6.1h-19v4.4h17.5v6.2h-17.6v4.3h19.4v6.2h-29.1v-27.3L261.3,442.2L261.3,442.2z"/>
</g>
</svg>
