<?xml version="1.0" encoding="utf-8"?>
<!-- Generator: Adobe Illustrator 18.1.0, SVG Export Plug-In . SVG Version: 6.00 Build 0)  -->
<svg version="1.1" id="Layer_1" xmlns="http://www.w3.org/2000/svg" xmlns:xlink="http://www.w3.org/1999/xlink" x="0px" y="0px"
	 viewBox="91.5 76.5 115 135" enable-background="new 91.5 76.5 115 135" xml:space="preserve">
<rect x="91.5" y="76.5" fill="#FFFFFF" stroke="#000000" stroke-miterlimit="10" width="115" height="135"/>
<path d="M194,81.9c-1.5-1.5-3.4-2.3-5.6-2.3h-79.9c-2.2,0-4,0.8-5.6,2.3c-1.5,1.5-2.3,3.4-2.3,5.6v75.1c0,2.2,0.8,4,2.3,5.6
	c1.5,1.5,3.4,2.3,5.6,2.3h79.9c2.2,0,4-0.8,5.6-2.3s2.3-3.4,2.3-5.6V87.5C196.3,85.3,195.5,83.5,194,81.9L194,81.9z"/>
<path fill="#F3C41E" d="M193.7,87.5c0-1.5-0.6-2.7-1.6-3.8c-1-1.1-2.3-1.5-3.8-1.5h-79.8c-1.5,0-2.8,0.6-3.8,1.5
	c-1.1,1.1-1.5,2.3-1.5,3.8v75.1c0,1.5,0.6,2.8,1.5,3.8c1.1,1.1,2.3,1.5,3.8,1.5h79.9c1.5,0,2.8-0.6,3.8-1.5c1.1-1.1,1.6-2.3,1.6-3.8
	L193.7,87.5L193.7,87.5z"/>
<path d="M190.4,85.5c-0.6-0.6-1.2-0.8-2-0.8h-79.9c-0.8,0-1.5,0.3-2,0.8c-0.6,0.6-0.8,1.2-0.8,2v75.1c0,0.8,0.3,1.5,0.8,2
	c0.6,0.6,1.2,0.8,2,0.8h79.9c0.8,0,1.5-0.3,2-0.8c0.6-0.6,0.8-1.2,0.8-2V87.5C191.3,86.7,191,86,190.4,85.5L190.4,85.5z"/>
<polygon fill="#F3C41E" points="185.4,116.2 158,116.2 149.5,90.3 140.9,116.2 113.2,116.2 135.8,132 127.4,157.9 149.4,142.2 
	171.8,158.3 163.6,131.8 "/>
<polygon points="176.3,118.7 155.8,118.7 149.4,99.3 142.9,118.7 122.3,118.7 139.1,130.6 132.9,150 149.4,138.2 166.1,150.3 
	160,130.5 "/>
<polygon fill="#FFFFFF" points="157.3,129.8 169.6,121 154.3,121 149.4,106.5 144.6,121 129,121 141.6,130 136.9,144.6 149.4,135.7 
	162,144.9 "/>
<path d="M108.5,172.9c-2.2,0-4,0.8-5.6,2.3c-1.5,1.5-2.3,3.4-2.3,5.6v18.1c0,2.2,0.8,4,2.3,5.6c1.5,1.5,3.4,2.3,5.6,2.3h79.9
	c2.2,0,4-0.8,5.6-2.3s2.3-3.4,2.3-5.6v-18.1c0-2.2-0.8-4-2.3-5.6s-3.4-2.3-5.6-2.3L108.5,172.9L108.5,172.9z"/>
<path fill="#F3C41E" d="M104.7,177c-1.1,1.1-1.5,2.3-1.5,3.8v18.1c0,1.5,0.6,2.7,1.5,3.8c1.1,1.1,2.3,1.5,3.8,1.5h79.9
	c1.5,0,2.8-0.6,3.8-1.5c1.1-1.1,1.6-2.3,1.6-3.8v-18.1c0-1.5-0.6-2.8-1.6-3.8c-1-1.1-2.3-1.5-3.8-1.5h-79.9
	C107,175.4,105.7,176,104.7,177L104.7,177z"/>
<path d="M108.5,178c-0.8,0-1.5,0.3-2,0.8c-0.6,0.6-0.8,1.2-0.8,2V199c0,0.8,0.3,1.5,0.8,2c0.6,0.6,1.2,0.8,2,0.8h79.9
	c0.8,0,1.5-0.3,2-0.8c0.6-0.6,0.8-1.2,0.8-2v-18.1c0-0.8-0.3-1.5-0.8-2c-0.6-0.6-1.2-0.8-2-0.8H108.5L108.5,178z"/>
<path fill="#FFFFFF" d="M161.6,188.7v-4.1l-2.4-2.2H153V198h3.6v-6.4h1.5v6.3h3.5v-6.3l-1.9-1.5L161.6,188.7L161.6,188.7z
	 M111.5,182.3v13.4l2.4,2.3h4l2.3-2.3v-13.4h-3.6V195H115v-12.7H111.5L111.5,182.3z M158,185.3v3.6h-1.5v-3.6H158L158,185.3z
	 M174.6,182.3h-4.3l-1.2,7.6h-0.3l-1.3-7.6h-4.2v15.7h3.3v-10h0.1l1.5,10h1.3l1.5-10h0.1v10h3.3V182.3L174.6,182.3z M181.1,188
	L181.1,188l-1.3-5.7h-3.6l3.1,9.1v6.6h3.6v-6.6l3.1-9.1h-3.6L181.1,188L181.1,188z M125.2,198v-3h-3.6v3H125.2L125.2,198z
	 M136.6,194.9v3h3.6v-3H136.6L136.6,194.9z M135.4,184.6l-2.6-2.2H129l-2.3,2.2v4.7l2.5,2.2l2.6,0.2v3.3h-1.5V193h-3.6v2.7l2.3,2.3
	h3.9l2.4-2.3v-4.8l-2.5-2.2l-2.6-0.2v-3.1h1.5v2.1h3.6V184.6L135.4,184.6z M149.2,182.3h-5.3l-2.2,15.7h3.5l0.3-2.9h2.1l0.3,2.9h3.5
	L149.2,182.3L149.2,182.3z M145.8,192.2l0.6-6.5h0.4l0.7,6.5H145.8L145.8,192.2z"/>
</svg>
