<?xml version="1.0" encoding="utf-8"?>
<!-- Generator: Adobe Illustrator 18.1.0, SVG Export Plug-In . SVG Version: 6.00 Build 0)  -->
<svg version="1.1" id="Layer_1" xmlns="http://www.w3.org/2000/svg" xmlns:xlink="http://www.w3.org/1999/xlink" x="0px" y="0px"
	 viewBox="0 0 288 288" enable-background="new 0 0 288 288" xml:space="preserve">
<rect x="21.3" fill="#FFFFFF" width="245.3" height="288"/>
<path d="M240,11.5c-3.2-3.2-7.3-4.9-11.9-4.9H57.6c-4.7,0-8.5,1.7-11.9,4.9c-3.2,3.2-4.9,7.3-4.9,11.9v160.2c0,4.7,1.7,8.5,4.9,11.9
	c3.2,3.2,7.3,4.9,11.9,4.9h170.5c4.7,0,8.5-1.7,11.9-4.9c3.4-3.2,4.9-7.3,4.9-11.9V23.5C244.9,18.8,243.2,14.9,240,11.5L240,11.5z"
	/>
<path fill="#F3C41E" d="M239.4,23.5c0-3.2-1.3-5.8-3.4-8.1c-2.1-2.3-4.9-3.2-8.1-3.2H57.6c-3.2,0-6,1.3-8.1,3.2
	c-2.3,2.3-3.2,4.9-3.2,8.1v160.2c0,3.2,1.3,6,3.2,8.1c2.3,2.3,4.9,3.2,8.1,3.2h170.5c3.2,0,6-1.3,8.1-3.2c2.3-2.3,3.4-4.9,3.4-8.1
	L239.4,23.5L239.4,23.5z"/>
<path d="M232.3,19.2c-1.3-1.3-2.6-1.7-4.3-1.7H57.6c-1.7,0-3.2,0.6-4.3,1.7c-1.3,1.3-1.7,2.6-1.7,4.3v160.2c0,1.7,0.6,3.2,1.7,4.3
	c1.3,1.3,2.6,1.7,4.3,1.7h170.5c1.7,0,3.2-0.6,4.3-1.7c1.3-1.3,1.7-2.6,1.7-4.3V23.5C234.2,21.8,233.6,20.3,232.3,19.2L232.3,19.2z"
	/>
<polygon fill="#F3C41E" points="221.7,84.7 163.2,84.7 145.1,29.4 126.7,84.7 67.6,84.7 115.8,118.4 97.9,173.7 144.9,140.2 
	192.6,174.5 175.1,118 "/>
<polygon points="202.2,90 158.5,90 144.9,48.6 131,90 87,90 122.9,115.4 109.7,156.8 144.9,131.6 180.5,157.4 167.5,115.2 "/>
<polygon fill="#FFFFFF" points="161.7,113.7 187.9,94.9 155.3,94.9 144.9,64 134.6,94.9 101.3,94.9 128.2,114.1 118.2,145.3 
	144.9,126.3 171.7,145.9 "/>
<path d="M57.6,205.7c-4.7,0-8.5,1.7-11.9,4.9c-3.2,3.2-4.9,7.3-4.9,11.9v38.6c0,4.7,1.7,8.5,4.9,11.9c3.2,3.2,7.3,4.9,11.9,4.9
	h170.5c4.7,0,8.5-1.7,11.9-4.9s4.9-7.3,4.9-11.9v-38.6c0-4.7-1.7-8.5-4.9-11.9s-7.3-4.9-11.9-4.9H57.6L57.6,205.7z"/>
<path fill="#F3C41E" d="M49.5,214.4c-2.3,2.3-3.2,4.9-3.2,8.1v38.6c0,3.2,1.3,5.8,3.2,8.1c2.3,2.3,4.9,3.2,8.1,3.2h170.5
	c3.2,0,6-1.3,8.1-3.2c2.3-2.3,3.4-4.9,3.4-8.1v-38.6c0-3.2-1.3-6-3.4-8.1c-2.1-2.3-4.9-3.2-8.1-3.2H57.6
	C54.4,211,51.6,212.3,49.5,214.4L49.5,214.4z"/>
<path d="M57.6,216.5c-1.7,0-3.2,0.6-4.3,1.7c-1.3,1.3-1.7,2.6-1.7,4.3v38.8c0,1.7,0.6,3.2,1.7,4.3c1.3,1.3,2.6,1.7,4.3,1.7h170.5
	c1.7,0,3.2-0.6,4.3-1.7c1.3-1.3,1.7-2.6,1.7-4.3v-38.6c0-1.7-0.6-3.2-1.7-4.3c-1.3-1.3-2.6-1.7-4.3-1.7H57.6V216.5z"/>
<path fill="#FFFFFF" d="M170.9,239.4v-8.7l-5.1-4.7h-13.2v33.3h7.7v-13.7h3.2V259h7.5v-13.4l-4.1-3.2L170.9,239.4L170.9,239.4z
	 M64,225.7v28.6l5.1,4.9h8.5l4.9-4.9v-28.6h-7.7v27.1h-3.4v-27.1H64L64,225.7z M163.2,232.1v7.7H160v-7.7H163.2L163.2,232.1z
	 M198.6,225.7h-9.2l-2.6,16.2h-0.6l-2.8-16.2h-9v33.5h7v-21.3h0.2l3.2,21.3h2.8l3.2-21.3h0.2v21.3h7v-33.5H198.6z M212.5,237.9
	L212.5,237.9l-2.8-12.2H202l6.6,19.4v14.1h7.7v-14.1l6.6-19.4h-7.7L212.5,237.9L212.5,237.9z M93.2,259.2v-6.4h-7.7v6.4H93.2
	L93.2,259.2z M117.5,252.6v6.4h7.7v-6.4H117.5L117.5,252.6z M115,230.6l-5.5-4.7h-8.1l-4.9,4.7v10l5.3,4.7l5.5,0.4v7h-3.2v-4.3h-7.7
	v5.8l4.9,4.9h8.3l5.1-4.9v-10.2l-5.3-4.7l-5.5-0.4v-6.6h3.2v4.5h7.7v-6.2H115z M144.4,225.7h-11.3l-4.7,33.5h7.5l0.6-6.2h4.5
	l0.6,6.2h7.5L144.4,225.7L144.4,225.7z M137.2,246.8l1.3-13.9h0.9l1.5,13.9H137.2L137.2,246.8z"/>
</svg>
