<?xml version="1.0" encoding="utf-8"?>
<!-- Generator: Adobe Illustrator 18.1.0, SVG Export Plug-In . SVG Version: 6.00 Build 0)  -->
<svg version="1.1" xmlns="http://www.w3.org/2000/svg" xmlns:xlink="http://www.w3.org/1999/xlink" x="0px" y="0px"
	 viewBox="0 0 115 135" enable-background="new 0 0 115 135" xml:space="preserve">
<g id="Layer_2">
	<rect fill="#FFFFFF" width="115" height="135"/>
</g>
<g id="Layer_1">
	<path d="M0,89.2"/>
	<path d="M115,135V96.6c-5.1-6.1-16.4-8.7-29.1-13.5c-1.3-0.5-3.2-2.9-4.1-4c-0.5-0.6-1.2-2-1.8-2.5c-0.8-0.6-2.8-1.2-3.5-1.9
		c-0.3-0.3-1-1.6-1-1.6s-2.2-6.2,0.7-11.5c0.9-1.7,1.6-7.6,3.2-9c1.2-1.1,2.7-4.1,3.4-5.6c0.4-1,1.1-2.9,1.2-3.9
		c0.2-1.3,0.5-3.9,0-5.1c-0.2-0.4-0.9-1-1-1.4c-0.1-0.3,0-0.8,0-1.1c-0.1-4.2-0.6-15.6-0.9-16.6c-1.3-4.9-5.2-7.1-7.6-8.6
		c-1.1-0.7-5.1-2.7-5.1-2.7S66,6.4,64.9,5.8c-0.9-0.5-2.3-0.7-3.5-1.1C60,4.2,57.2,4.9,55.6,5C31.6,6.7,34.5,33.3,34.2,35.7
		c0,0.4-1.3,0.5-1.1,2.6c0.4,3.7,0.4,7.9,0.6,8.8c0.8,2.4,2.3,5.4,2.8,5.8c0.5,0.4,1.6,3.3,2.7,9c0.6,3.3,3.6,5.2,1.2,11.5
		c-0.6,1.6-4.9,2.3-6.3,3.4c-1.3,1-3.5,3.5-4.9,4.4c-1.7,1.1-5.6,2.2-7.5,2.9c-2.3,0.8-7,2.1-9.4,2.6C9.3,87.3,0,89,0,89v46H115z"/>
</g>
</svg>
